<?xml version="1.0" encoding="UTF-8" standalone="no"?>
<!-- Created with Inkscape (http://www.inkscape.org/) -->
<svg
   xmlns:svg="http://www.w3.org/2000/svg"
   xmlns="http://www.w3.org/2000/svg"
   version="1.0"
   width="149.24579"
   height="78.0681"
   id="svg2">
  <defs
     id="defs4" />
  <g
     transform="translate(-293.28559,-504.19295)"
     id="layer1">
    <path
       d="M 293.28559,532.94571 C 293.30738,533.90053 293.61234,534.60482 294.20045,535.0586 C 294.78859,535.51242 295.52919,535.73751 296.42226,535.73386 C 297.59488,535.73751 298.73483,535.38173 299.84209,534.66651 C 300.94937,533.95135 301.78436,532.85497 302.34707,531.37738 C 303.34906,528.15361 304.87382,524.88625 306.92137,521.57529 C 308.96891,518.26441 311.27784,516.47825 313.84817,516.21683 C 314.6287,516.2314 315.2023,516.50731 315.56898,517.04456 C 315.93564,517.5819 316.11716,518.29346 316.11354,519.17924 C 316.08449,520.05057 315.96832,520.92186 315.76502,521.79312 L 305.30947,552.11422 C 305.16425,552.637 305.10617,553.15978 305.13521,553.68255 C 305.14247,554.57563 305.43291,555.31623 306.00651,555.90435 C 306.58011,556.49248 307.39332,556.79743 308.44614,556.81921 L 312.27984,556.81921 C 313.6376,556.78654 314.93002,556.32911 316.15711,555.44692 C 317.38417,554.56474 318.24094,553.45384 318.72743,552.11422 L 329.00872,521.79312 C 329.58956,520.341 330.5625,519.0631 331.92756,517.95942 C 333.29256,516.85582 334.70115,516.27496 336.15334,516.21683 C 336.93385,516.23502 337.50745,516.50367 337.87415,517.02278 C 338.24079,517.54197 338.42231,518.2027 338.41871,519.00498 C 338.41868,519.44792 338.37511,519.91261 338.28802,520.39905 C 338.20085,520.88556 338.07016,521.35025 337.89594,521.79312 L 329.35724,552.11422 C 329.26645,552.36835 329.18658,552.60069 329.11763,552.81125 C 329.04862,553.02182 329.01232,553.25417 329.00872,553.50829 C 329.01959,554.48487 329.34632,555.27629 329.98893,555.88257 C 330.63149,556.48884 331.52456,556.80106 332.66816,556.81921 L 336.50186,556.81921 C 337.85596,556.78654 339.11208,556.32911 340.27021,555.44692 C 341.42827,554.56474 342.20518,553.45384 342.60093,552.11422 L 351.31389,521.79312 C 351.81484,520.341 352.7297,519.0631 354.05847,517.95942 C 355.38715,516.85582 356.73766,516.27496 358.11,516.21683 C 358.97398,516.23865 359.59841,516.54361 359.98328,517.13169 C 360.36805,517.71986 360.55683,518.46046 360.54963,519.3535 C 360.52053,520.07961 360.40436,520.89282 360.20111,521.79312 L 353.405,550.54588 C 353.20165,551.21389 353.08547,551.96901 353.05648,552.81125 C 353.06006,554.49939 353.53202,555.87168 354.47234,556.92812 C 355.41256,557.98457 356.79937,558.52913 358.63278,558.56181 C 365.06578,558.12979 370.97607,555.98785 376.36364,552.136 C 381.75108,548.28416 384.61183,545.31449 384.94591,543.227 C 384.92767,542.43196 384.65902,541.80027 384.13996,541.33193 C 383.62073,540.86362 382.96,540.62402 382.15776,540.61311 C 380.46592,540.90356 378.57811,542.06529 376.49434,544.0983 C 374.41042,546.13133 372.34835,547.29306 370.30814,547.58348 C 369.95229,547.57986 369.66186,547.45642 369.43684,547.21317 C 369.21169,546.96995 369.09552,546.62869 369.08832,546.18941 C 369.05922,545.98611 369.1173,545.69568 369.26258,545.31811 L 375.36165,519.3535 C 375.45234,518.91063 375.53221,518.44594 375.60126,517.95942 C 375.67016,517.47299 375.70647,517.0083 375.71017,516.56535 C 375.64839,513.38153 374.6827,510.55708 372.81311,508.09199 C 370.94339,505.627 368.54007,504.32732 365.60314,504.19295 C 363.05091,504.21841 360.53141,504.82106 358.04465,506.00089 C 355.55777,507.18081 353.2561,508.78545 351.13963,510.8148 C 350.61318,508.86169 349.74914,507.27883 348.54753,506.06623 C 347.34582,504.85373 345.82832,504.2293 343.99501,504.19295 C 341.4428,504.21479 338.9233,504.78113 336.43651,505.89198 C 333.94966,507.00293 331.64799,508.5277 329.5315,510.46628 C 329.00869,508.60393 328.18096,507.10095 327.0483,505.95732 C 325.91559,504.8138 324.47796,504.22568 322.73539,504.19295 C 316.831,504.47053 311.67853,506.64554 307.27795,510.71798 C 302.87737,514.79053 299.45458,519.09537 297.00957,523.63252 C 294.56457,528.16974 293.32325,531.27413 293.28559,532.94571 L 293.28559,532.94571 z M 408.20233,552.11422 C 406.22373,552.07792 404.8224,551.45349 403.99832,550.24093 C 403.1742,549.02838 402.77486,547.44553 402.80029,545.49237 C 402.82394,542.47619 403.58982,538.55644 405.09793,533.7331 C 406.606,528.90981 408.71432,524.55118 411.42289,520.65721 C 414.13141,516.76331 417.29819,514.70232 420.92324,514.47424 C 422.47701,514.51785 423.59517,515.08419 424.27773,516.17327 C 424.9602,517.26243 425.2942,518.61293 425.27972,520.22479 C 425.29151,521.49627 424.70635,524.6652 423.52422,529.73159 C 422.34201,534.79804 420.49185,539.70956 417.97374,544.46617 C 415.45556,549.22281 412.19842,551.77216 408.20233,552.11422 L 408.20233,552.11422 z M 371.25938,532.77145 C 371.29207,533.81703 371.66237,534.60119 372.37029,535.12395 C 373.07822,535.64674 373.92773,535.90813 374.91883,535.90812 C 378.03721,535.64352 380.31979,533.79121 381.76657,530.35119 C 383.21334,526.91121 384.63108,523.47121 386.01978,520.03117 C 387.40847,516.5912 389.57487,514.7389 392.519,514.47424 C 393.0345,514.47428 393.39754,514.60498 393.60812,514.86632 C 393.81867,515.12775 393.92032,515.51984 393.91308,516.04257 C 393.9058,516.58354 393.78963,517.24427 393.56456,518.02477 C 393.33946,518.80534 393.04903,519.59677 392.69326,520.39905 L 376.66142,567.79754 C 375.16516,571.46127 372.92991,573.54377 369.95567,574.04505 C 366.98144,574.5463 364.22987,574.83458 361.70094,574.90989 C 359.17205,574.98517 357.82747,576.21574 357.66717,578.60161 C 357.67083,579.51644 357.96852,580.34417 358.56025,581.0848 C 359.15203,581.82538 360.01606,582.21746 361.15235,582.26105 C 361.45369,582.22472 363.3778,582.0795 366.92469,581.8254 C 370.4716,581.57125 374.8789,581.42603 380.1466,581.38975 C 385.24367,581.42603 389.55658,581.57125 393.08534,581.8254 C 396.61407,582.0795 398.57449,582.22472 398.96659,582.26105 C 400.10289,582.21746 400.96692,581.82538 401.55869,581.0848 C 402.15043,580.34418 402.44812,579.51645 402.45177,578.60161 C 402.34204,576.46638 401.57401,575.33477 400.14768,575.20678 C 398.72132,575.07875 397.29498,574.8249 395.86865,574.4452 C 394.44229,574.06547 393.67426,572.43045 393.56456,569.54013 C 393.5718,568.85034 393.64441,568.18235 393.78238,567.53615 C 393.92032,566.88993 394.08006,566.22193 394.26159,565.53217 L 397.224,556.64495 C 397.93917,554.90963 399.64545,554.76441 402.34286,556.2093 C 405.04022,557.6542 409.14257,558.55454 414.64991,558.91032 C 420.15719,558.79415 426.04569,555.8027 432.31543,549.93597 C 438.58508,544.06926 441.99039,536.02431 442.53138,525.80108 C 442.5059,520.01789 440.90127,515.29112 437.71747,511.62074 C 434.53355,507.95046 429.92295,506.05539 423.88565,505.93554 C 420.77435,505.97553 417.63043,506.81052 414.45387,508.44051 C 411.27724,510.07061 408.43827,512.25611 405.93696,514.99702 C 405.32702,512.40859 404.15077,510.26665 402.4082,508.57121 C 400.66559,506.87586 398.35666,505.99731 395.48141,505.93554 C 390.68389,506.22817 386.47371,508.39243 382.85085,512.4283 C 379.22798,516.46427 376.39896,520.61637 374.36378,524.88461 C 372.32861,529.15291 371.29381,531.78185 371.25938,532.77145 L 371.25938,532.77145 z"
       id="text2502"
       style="font-size:174.26139832px;font-style:normal;font-variant:normal;font-weight:normal;font-stretch:normal;text-align:center;text-anchor:middle;fill:#000000;fill-opacity:1;stroke:none;stroke-width:1px;stroke-linecap:butt;stroke-linejoin:miter;stroke-opacity:1;font-family:Emmentaler;-inkscape-font-specification:Emmentaler" />
  </g>
</svg>
